<svg id="Layer_1" data-name="Layer 1" xmlns="http://www.w3.org/2000/svg" xmlns:xlink="http://www.w3.org/1999/xlink" viewBox="0 0 173.09 65.7"><defs><radialGradient id="radial-gradient" cx="20.9" cy="61.6" r="9.83" gradientTransform="translate(-1.21 -68.41) scale(1.18 1.31)" gradientUnits="userSpaceOnUse"><stop offset="0" stop-color="#fff"/><stop offset="0" stop-color="#ffcb05"/><stop offset="0" stop-color="#00a651"/><stop offset="1" stop-color="#8bc751"/></radialGradient><radialGradient id="radial-gradient-2" cx="55.08" cy="78.84" r="11.59" gradientTransform="translate(-35.84 -58.89) scale(1.1 1.2)" gradientUnits="userSpaceOnUse"><stop offset="0" stop-color="#fff"/><stop offset="0" stop-color="#ffcb05"/><stop offset="1" stop-color="#f7941d"/></radialGradient></defs><title>2-white-logoArtboard 1 copy 2</title><path d="M47.13,15.92a4.71,4.71,0,0,1,2.43.71,6.91,6.91,0,0,1,1.82,1.68,9.53,9.53,0,0,1,1.28,2.34,22.69,22.69,0,0,1,.86,2.65,31.67,31.67,0,0,1,.82,7.19,51.28,51.28,0,0,1,2.18-7.24c.35-.88.74-1.76,1.18-2.63a16.37,16.37,0,0,1,1.42-2.29,7.29,7.29,0,0,1,1.63-1.61,2.92,2.92,0,0,1,1.86-.57,2.69,2.69,0,0,1,1.63.62,4.86,4.86,0,0,1,1.16,1.46,8.45,8.45,0,0,1,.73,2,19.69,19.69,0,0,1,.38,2.32,35.25,35.25,0,0,1,0,6.29,38.84,38.84,0,0,1,2-6.2c.35-.75.73-1.5,1.14-2.24a12,12,0,0,1,1.37-2,6.61,6.61,0,0,1,1.63-1.4,3.29,3.29,0,0,1,1.87-.47,2.87,2.87,0,0,1,2.1.94,6.7,6.7,0,0,1,1.26,2,8.62,8.62,0,0,1,.58,2.27,15.54,15.54,0,0,1,.13,1.61c0,.16,0,.59-.13,1.28s-.18,1.55-.3,2.55-.24,2.12-.38,3.32-.28,2.36-.41,3.48-.24,2.16-.34,3.12-.18,1.7-.24,2.2a15.1,15.1,0,0,0,0,3,10.8,10.8,0,0,0,.34,1.9,4.1,4.1,0,0,0,.64,1.27,2.5,2.5,0,0,1,.18.24.57.57,0,0,1-.09.57.26.26,0,0,1-.26.12,1.19,1.19,0,0,1-.32-.1L77,46.21a2.34,2.34,0,0,1-.86-.81A5.48,5.48,0,0,1,75.5,44a8.8,8.8,0,0,1-.28-2.49c0-.79,0-2,0-3.76a39.87,39.87,0,0,1,.49-5.66c.29-1.92.5-3.73.65-5.44a35.45,35.45,0,0,0,.12-4.49A8.94,8.94,0,0,0,75.93,19a1.66,1.66,0,0,0-1.44-1.18,2.58,2.58,0,0,0-2,.92,10.22,10.22,0,0,0-1.78,2.51,25.13,25.13,0,0,0-1.5,3.41c-.46,1.24-.86,2.46-1.21,3.66s-.62,2.31-.83,3.32-.35,1.76-.41,2.27c-.08.76-.16,1.65-.23,2.67s-.14,2-.2,2.91-.1,1.71-.13,2.39,0,1,0,1.11-.06.19-.11.36a2.18,2.18,0,0,1-.19.52,1,1,0,0,1-.36.4.52.52,0,0,1-.54,0,1.22,1.22,0,0,1-.6-.45,1.27,1.27,0,0,1-.21-.49,1.81,1.81,0,0,1,0-.57c.08-1.07.17-2.19.25-3.36.06-1,.12-2.07.17-3.27s.1-2.35.13-3.45c0-.73,0-1.61.07-2.65s.06-2.12.06-3.22,0-2.2-.08-3.29a21.57,21.57,0,0,0-.35-2.94,6.68,6.68,0,0,0-.73-2.1,1.48,1.48,0,0,0-1.2-.85c-.74,0-1.54.53-2.4,1.7A21,21,0,0,0,57.64,24a50.27,50.27,0,0,0-3.22,14c-.06.78-.11,1.57-.17,2.34s-.1,1.47-.13,2.08-.06,1.3-.08,2.06a2.88,2.88,0,0,1,0,.85,1.84,1.84,0,0,1-.25.59.53.53,0,0,1-.56.22q-1.08-.1-1.2-.36a1.53,1.53,0,0,1,0-.92c0-.22.08-.74.17-1.56s.17-1.75.26-2.8.15-2.11.21-3.21.09-2.06.09-2.84V32.15c0-1-.05-2.19-.13-3.46s-.23-2.55-.43-3.88a19.38,19.38,0,0,0-.88-3.62,8.82,8.82,0,0,0-1.5-2.72,3.09,3.09,0,0,0-2.34-1.13,4.79,4.79,0,0,0-2,.33,8.67,8.67,0,0,0-1.93,1,11.14,11.14,0,0,0-1.74,1.5c-.54.56-1,1.13-1.5,1.7a26.4,26.4,0,0,0-3,4.68.56.56,0,0,1-.13.38.73.73,0,0,1-.26.17.42.42,0,0,1-.39-.07.45.45,0,0,1-.25-.36.9.9,0,0,1,0-.49,1.65,1.65,0,0,1,.21-.57,27.33,27.33,0,0,1,2.92-5,22.13,22.13,0,0,1,1.52-1.78,12.82,12.82,0,0,1,1.82-1.56,9.12,9.12,0,0,1,2.1-1.09,6.41,6.41,0,0,1,2.36-.35Z" style="fill:#fff"/><path d="M93.4,40.9q-.23.48-.75,1.38a15.24,15.24,0,0,1-1.27,1.8,10,10,0,0,1-1.6,1.58,2.88,2.88,0,0,1-1.78.69,2.14,2.14,0,0,1-1.55-.43,4.59,4.59,0,0,1-.9-1A3.65,3.65,0,0,1,85,43.51a13.34,13.34,0,0,1-1,1.56,7.53,7.53,0,0,1-1,1.07,1.46,1.46,0,0,1-1.12.44,2.13,2.13,0,0,1-.77-.19,2.17,2.17,0,0,1-.9-.75A4.09,4.09,0,0,1,79.66,44a7.93,7.93,0,0,1,0-2.7,9.63,9.63,0,0,1,.73-2.89,8,8,0,0,1,1.25-2A4.52,4.52,0,0,1,83,35.3a2.79,2.79,0,0,1,1.22-.36,2.47,2.47,0,0,1,1.42.43,2.12,2.12,0,0,1,.66.85,2,2,0,0,1,.17.9c0,.28,0,.46,0,.52a1.73,1.73,0,0,1-.28.66.65.65,0,0,1-.28.24.28.28,0,0,1-.25,0l-.26-.11a2.39,2.39,0,0,0,0-1,1.53,1.53,0,0,0-.35-.68,1.1,1.1,0,0,0-.81-.36,1.53,1.53,0,0,0-.92.33,3.5,3.5,0,0,0-.84.93A6.72,6.72,0,0,0,81.74,39a10.55,10.55,0,0,0-.48,1.57,10.91,10.91,0,0,0-.21,1.61,6.41,6.41,0,0,0,.06,1.42,2.5,2.5,0,0,0,.37,1,.76.76,0,0,0,.64.38,1.46,1.46,0,0,0,1.14-.76,9,9,0,0,0,.94-1.75,17.24,17.24,0,0,0,.67-2c.17-.66.28-1.13.34-1.42q0-.18.3-.21a1.47,1.47,0,0,1,1.09.38.51.51,0,0,1,.19.49,11.75,11.75,0,0,0-.45,2.54A4.14,4.14,0,0,0,86.67,44a1.37,1.37,0,0,0,1.41.78,3.43,3.43,0,0,0,2.25-1.3,20.24,20.24,0,0,0,3-4.76c.2-.38.37-.35.52.1a3.24,3.24,0,0,1-.43,2.08Z" style="fill:#fff"/><path d="M92.15,40.43c.12-.16.23-.33.35-.52a3.7,3.7,0,0,0,.3-.71,3.9,3.9,0,0,0,.19-.69,3.58,3.58,0,0,1,.19-.66,1.59,1.59,0,0,1,.35-.52,1,1,0,0,1,.6-.26,1.32,1.32,0,0,1,1.35.77A7.9,7.9,0,0,1,96.27,40c.29-.6.59-1.18.92-1.73a11.5,11.5,0,0,1,1-1.47,5,5,0,0,1,1.16-1,2.12,2.12,0,0,1,1.26-.33,2.69,2.69,0,0,1,1.72.69,3.47,3.47,0,0,1,.86,1.3,5,5,0,0,1,.3,1.33c0,.41,0,.63,0,.66a7.84,7.84,0,0,1-.41,2.32,10.77,10.77,0,0,1-1.07,2.36,7,7,0,0,1-1.52,1.8,2.36,2.36,0,0,1-1.76.62,3.09,3.09,0,0,1-1.22-.37,2,2,0,0,1-.67-.64A34.19,34.19,0,0,1,97,49.66c0,1.62-.07,3.25-.13,4.89,0,.85-.14,1.88-.25,3.1A21.54,21.54,0,0,1,96,61.14,9.16,9.16,0,0,1,94.81,64a2.07,2.07,0,0,1-2,1,2.35,2.35,0,0,1-1.76-.8,3.73,3.73,0,0,1-.73-1.56A7.07,7.07,0,0,1,90.22,61a8,8,0,0,1,.09-1,32,32,0,0,1,.6-3.87c.32-1.48.68-3,1.09-4.46s.85-2.9,1.29-4.21.82-2.34,1.14-3.09l.43-1.09q.21-.57.51-1.23c-.06-.35-.1-.64-.13-.87s-.06-.41-.08-.5a9.31,9.31,0,0,0-.37-1.32c-.16-.44-.32-.65-.49-.62s-.19,0-.22.12l-.15.4c-.07.19-.18.44-.32.76a7.74,7.74,0,0,1-.77,1.23.54.54,0,0,1-.45.19.69.69,0,0,1-.32-.19.53.53,0,0,1-.13-.38A.69.69,0,0,1,92.15,40.43Zm3.43,4.5c-.28.88-.48,1.5-.6,1.84l-.72,2.07c-.32.9-.64,1.94-1,3.13s-.63,2.46-.9,3.82a31.78,31.78,0,0,0-.54,4c0,.47,0,.93,0,1.37a7.12,7.12,0,0,0,.09,1.19,2.3,2.3,0,0,0,.28.85.56.56,0,0,0,.49.34c.51,0,1-.29,1.31-.95a10.53,10.53,0,0,0,.88-2.45,25.52,25.52,0,0,0,.51-3c.11-1,.2-2,.26-2.7.11-1.68.15-3.35.13-5S95.67,46.29,95.58,44.93Zm1-2.78a10.69,10.69,0,0,1,.13,1.69c.23-.25.41-.38.56-.38s.12.08.19.24.16.33.26.51a2,2,0,0,0,.43.52,1,1,0,0,0,.7.25,1.82,1.82,0,0,0,1.46-.57,5.1,5.1,0,0,0,1-1.49,8.49,8.49,0,0,0,.55-1.78c.12-.6.2-1.09.26-1.47a4.67,4.67,0,0,0,0-1.37,2.19,2.19,0,0,0-.34-.83,1.33,1.33,0,0,0-.54-.42,2.72,2.72,0,0,0-.56-.17,1.59,1.59,0,0,0-1.15.4,5.68,5.68,0,0,0-1.08,1.18,11.2,11.2,0,0,0-1,1.71C97.11,40.83,96.83,41.49,96.57,42.15Z" style="fill:#fff"/><path d="M113.51,40.81c-.09.16-.29.54-.6,1.16a14.53,14.53,0,0,1-1.22,1.94A9.68,9.68,0,0,1,110,45.73a3.31,3.31,0,0,1-2.14.81,2.78,2.78,0,0,1-2-.69,4.68,4.68,0,0,1-1.11-1.58,5.7,5.7,0,0,1-.47-1.76,5.88,5.88,0,0,1,0-1.18c0-.19.07-.46.11-.83s.09-.71.15-1.06.11-.84.17-1.28a.88.88,0,0,1,.39-.47.85.85,0,0,1,.53-.12.91.91,0,0,1,.5.19.58.58,0,0,1,.21.49,5.35,5.35,0,0,1-.11.6c-.07.36-.13.79-.19,1.3a13.9,13.9,0,0,0-.08,1.63,6.57,6.57,0,0,0,.17,1.59,2.47,2.47,0,0,0,.64,1.18A1.58,1.58,0,0,0,108,45a2.84,2.84,0,0,0,1.67-.76,10.77,10.77,0,0,0,1.52-1.68,17.82,17.82,0,0,0,1.27-2l.94-1.82c.09-.22.18-.32.3-.31s.19.13.24.33a2.58,2.58,0,0,1,0,.86A5.09,5.09,0,0,1,113.51,40.81Zm-7.93-7.9a.86.86,0,0,1,.81.68,4.86,4.86,0,0,1,.13,1.07,1.09,1.09,0,0,1-.52.8,1,1,0,0,1-.81.24.94.94,0,0,1-.75-.57,2.39,2.39,0,0,1-.15-.8,3.26,3.26,0,0,1,.34-.93,1,1,0,0,1,1-.54Z" style="fill:#fff"/><path d="M133.53,16a11.06,11.06,0,0,1,3.41.66A10.9,10.9,0,0,1,140,18.33a7.61,7.61,0,0,1,2.1,2.41,4,4,0,0,1,.45,2.83,12.31,12.31,0,0,1-2,4.85A15.84,15.84,0,0,1,137.05,32a20.37,20.37,0,0,1-4.31,2.43,32.63,32.63,0,0,1-4.44,1.49,24.79,24.79,0,0,1-3.92.69,16.47,16.47,0,0,1-2.77,0c0,.92,0,1.86,0,2.84s0,1.87.07,2.67,0,1.49.06,2.05,0,.9,0,1a2,2,0,0,0,.06.47.8.8,0,0,1,0,.4c0,.11-.12.17-.28.19a1.86,1.86,0,0,1-.75-.17,1.28,1.28,0,0,1-.79-.68,3.48,3.48,0,0,1-.32-1,5,5,0,0,1,0-1.35c0-.75,0-1.52.08-2.31s.06-1.4.09-2.2.07-1.6.13-2.39c-.69-.41-1.07-.76-1.14-1.06s-.11-.46-.11-.5a.75.75,0,0,1,.11-.4c.07-.11.18-.1.32,0a1.59,1.59,0,0,0,.9.52c.06-.79.1-1.55.11-2.27s0-1.37,0-1.94,0-1.43.13-2.32.19-1.8.32-2.76l.39-2.86c.13-.94.26-1.81.41-2.6l-.26.05c-.94.35-1.87.74-2.77,1.18A27.08,27.08,0,0,0,116,22.53a21.63,21.63,0,0,0-2,1.37,7.32,7.32,0,0,0-1.22,1.18,1.48,1.48,0,0,0-.15.41.75.75,0,0,0,0,.3.57.57,0,0,1,0,.29.32.32,0,0,1-.15.23.24.24,0,0,1-.36,0,1.22,1.22,0,0,1-.24-.47l-.15-.64a3.16,3.16,0,0,1-.06-.52,2.18,2.18,0,0,1,.81-1.7,17,17,0,0,1,1.63-1.14c.75-.47,1.43-.89,2.06-1.25s1.25-.68,1.85-1,1.19-.54,1.77-.78l1.91-.73a4.81,4.81,0,0,0,.11-.73,4.29,4.29,0,0,1,.06-.5,2.39,2.39,0,0,1,.18-.87.55.55,0,0,1,.3-.33.5.5,0,0,1,.38,0l.47.16a1,1,0,0,0,.28.14.45.45,0,0,1,.24.19.84.84,0,0,1,.08.43,5.29,5.29,0,0,1-.12.9q1.41-.48,2.55-.78a19,19,0,0,1,2.2-.48,22.54,22.54,0,0,1,2.28-.23c.8-.05,1.71-.06,2.74,0ZM121.61,35a17.25,17.25,0,0,0,2.87,0,21.83,21.83,0,0,0,3.73-.57,27.1,27.1,0,0,0,4-1.33,15.45,15.45,0,0,0,3.82-2.24,14.65,14.65,0,0,0,3.05-3.32,11.8,11.8,0,0,0,1.75-4.52,3.92,3.92,0,0,0-.45-2.93,4.88,4.88,0,0,0-2-1.68,8.27,8.27,0,0,0-2.59-.78q-1.38-.2-2.28-.24c-1,0-2,0-2.87,0a18.52,18.52,0,0,0-2.55.31,19.65,19.65,0,0,0-2.4.62c-.79.25-1.62.53-2.51.85a21.85,21.85,0,0,0-.36,2.29c-.1.9-.21,1.87-.33,2.89s-.22,2.08-.34,3.17-.23,2.16-.34,3.2q-.09.95-.15,2C121.68,33.5,121.64,34.23,121.61,35Z" style="fill:#fff"/><path d="M134.14,37.19a.93.93,0,0,0,.77-.22,1.05,1.05,0,0,0,.49-.77,4.83,4.83,0,0,0-.12-1,.82.82,0,0,0-.78-.65l0,0a.89.89,0,0,0-.93.52,2.69,2.69,0,0,0-.32.87,2.16,2.16,0,0,0,.14.76A.88.88,0,0,0,134.14,37.19Z" style="fill:#fff"/><path d="M142.75,34.16a.58.58,0,0,0,.26.31.5.5,0,0,0,.36.05.54.54,0,0,0,.32-.34.63.63,0,0,1,.43-.16,4,4,0,0,1,.43,0,1.3,1.3,0,0,1,1,.33,2.06,2.06,0,0,0,1.2.42,3,3,0,0,0,1.48-.23,3.72,3.72,0,0,0,1.09-.86.59.59,0,0,0,.15-.45.69.69,0,0,0-.15-.4.55.55,0,0,0-.37-.16.45.45,0,0,0-.4.16,2.3,2.3,0,0,1-.77.59,3.24,3.24,0,0,1-1,.22,1.48,1.48,0,0,1-1-.41,2.15,2.15,0,0,0-1.24-.45,7.45,7.45,0,0,0-1,.19,1.22,1.22,0,0,0-.77.71h0A.64.64,0,0,0,142.75,34.16Z" style="fill:#fff"/><path d="M157.18,38.85c-.05-.21-.12-.33-.24-.36s-.21,0-.3.24c-.26.5-.56,1.11-.92,1.82a13.73,13.73,0,0,1-1.24,2,7.9,7.9,0,0,1-1.57,1.59,2.58,2.58,0,0,1-1.84.54,1.54,1.54,0,0,1-1.25-.61,3.24,3.24,0,0,1-.49-1.38,7.06,7.06,0,0,1,0-1.72c.07-.62.15-1.21.24-1.78s.15-1.06.19-1.47,0-.67-.11-.8a1.6,1.6,0,0,0-1.09-.71c-.39,0-.68.22-.88.76-.11.25-.3.75-.56,1.51s-.54,1.54-.85,2.34-.62,1.52-.91,2.13-.51.91-.68.88-.34-.3-.32-.71,0-.9.1-1.47.1-1.16.13-1.8a4.62,4.62,0,0,0-.21-1.7,1.82,1.82,0,0,0-.52-.85,1,1,0,0,0-.6-.24.94.94,0,0,0-.55.19,1.38,1.38,0,0,0-.43.52l-1.41,2.59a16.22,16.22,0,0,1-1.28,2A10.15,10.15,0,0,1,138,44a2.85,2.85,0,0,1-1.69.73A1.67,1.67,0,0,1,135,44.3a2.39,2.39,0,0,1-.65-1.15,6.1,6.1,0,0,1-.17-1.54A13.21,13.21,0,0,1,134.3,40c.06-.49.13-.91.2-1.27s.11-.54.11-.57a.56.56,0,0,0-.22-.48,1,1,0,0,0-.5-.19.93.93,0,0,0-.54.12.84.84,0,0,0-.4.46c0,.43-.11.84-.17,1.24s-.11.68-.15,1-.08.62-.11.8a5.38,5.38,0,0,0,0,1.15A5.67,5.67,0,0,0,133,44a4.49,4.49,0,0,0,1.13,1.54,2.85,2.85,0,0,0,2,.67,3.49,3.49,0,0,0,2.18-.78,10.17,10.17,0,0,0,1.76-1.77,13.51,13.51,0,0,0,1.24-1.89l.61-1.13c.09-.16.95-1.7,1-1.7s.23.16.26.48a6,6,0,0,1,0,1.23c0,.47-.07,1-.13,1.56a8.73,8.73,0,0,0,0,1.61,3.76,3.76,0,0,0,.32,1.3,1,1,0,0,0,.9.59,1.61,1.61,0,0,0,1.42-.85,10.06,10.06,0,0,0,1-2,19.08,19.08,0,0,0,.69-2c.17-.59.3-.88.39-.85s.17.21.17.52v1.14q0,.66.06,1.44a4.16,4.16,0,0,0,.39,1.45,3,3,0,0,0,.94,1.11,3.15,3.15,0,0,0,1.74.5,3.5,3.5,0,0,0,2.21-.67A7.76,7.76,0,0,0,155,43.89a11.45,11.45,0,0,0,1.18-1.83c.3-.58.49-1,.58-1.11a5.64,5.64,0,0,0,.39-1.25A2.75,2.75,0,0,0,157.18,38.85Z" style="fill:#fff"/><path d="M169.59,40.9a13.42,13.42,0,0,1-.75,1.38,16.38,16.38,0,0,1-1.26,1.8A10.44,10.44,0,0,1,166,45.66a2.88,2.88,0,0,1-1.78.69,2.16,2.16,0,0,1-1.55-.43,4.59,4.59,0,0,1-.9-1,4,4,0,0,1-.51-1.42,14.9,14.9,0,0,1-.94,1.56,8.26,8.26,0,0,1-1,1.07,1.44,1.44,0,0,1-1.12.44,2.13,2.13,0,0,1-.77-.19,2.17,2.17,0,0,1-.9-.75,4.41,4.41,0,0,1-.66-1.61,7.72,7.72,0,0,1,0-2.7,9.07,9.07,0,0,1,.73-2.89,8,8,0,0,1,1.24-2,4.64,4.64,0,0,1,1.39-1.13,2.79,2.79,0,0,1,1.22-.36,2.47,2.47,0,0,1,1.42.43,2,2,0,0,1,.66.85,2.19,2.19,0,0,1,.18.9c0,.28,0,.46,0,.52a1.75,1.75,0,0,1-.27.66.71.71,0,0,1-.28.24.3.3,0,0,1-.26,0l-.26-.11a2.24,2.24,0,0,0,0-1,1.62,1.62,0,0,0-.34-.68,1.15,1.15,0,0,0-.82-.36,1.55,1.55,0,0,0-.92.33,3.5,3.5,0,0,0-.84.93,8,8,0,0,0-.68,1.34,9.46,9.46,0,0,0-.47,1.57,9.74,9.74,0,0,0-.22,1.61,5.82,5.82,0,0,0,.07,1.42,2.5,2.5,0,0,0,.36,1,.77.77,0,0,0,.64.38,1.46,1.46,0,0,0,1.14-.76,8.5,8.5,0,0,0,.94-1.75,14.11,14.11,0,0,0,.67-2c.17-.66.28-1.13.34-1.42q0-.18.3-.21a1.41,1.41,0,0,1,.56.07,1.35,1.35,0,0,1,.53.31.52.52,0,0,1,.2.49,10.63,10.63,0,0,0-.45,2.54,4,4,0,0,0,.32,1.75,1.38,1.38,0,0,0,1.41.78,3.43,3.43,0,0,0,2.25-1.3,20.2,20.2,0,0,0,3-4.76c.19-.38.37-.35.51.1a3.24,3.24,0,0,1-.43,2.08Z" style="fill:#fff"/><path d="M19,22.07s-3.82-4.61-9.19-1.83c1.12-1.36,4.5-9.82,7.92-3.94-.56-1.31-2.47-7.2-6.93-5.88,0,0,3.73-1.69,5.17-.1a20.55,20.55,0,0,1-1.21-2.08,6.84,6.84,0,0,1,4.5,4.23c1.16-.18-.21-5.92-3.13-7.56-.73-.58,1.89.46,1.89.46L19.44,2a11.93,11.93,0,0,1,2.47,9.61c.28.18,1.6-5.33,2.7-5a9.07,9.07,0,0,1,0,2.09S27.89,4,29.71,4.78C28.18,7,26,8.33,26.08,11.29c.57.47.74-2.6,6.35-3.19-.95.82-1,1.23-1,1.23l2.39-.27s-5.9,6.06-6.1,6.33S31.32,13.2,34,14.21c-1.19.31-3.55,1.18-3.13,1.32s4.86-1.42,6.31,1.63c-4,.64-5.86,1.05-6.6,1.51s3.69.71,4.27,3.4c-3.47-.41-6.9-1.68-7.33-.77C23.58,19.28,19,22.07,19,22.07Z" style="fill:url(#radial-gradient)"/><path d="M19.44,21.82A7.58,7.58,0,0,0,12,19.32a13.19,13.19,0,0,0-1.76.67s.26-.35.27-.39a8.07,8.07,0,0,1,1-1.63,10.1,10.1,0,0,1,3.09-3.67l-.81.46c1.65-.72,2.71.46,3.55,1.79,0,0,.88-.48.87-.5-1.26-3-3-6.79-6.93-5.88l-.87.5c1.57-.68,3.73-1.31,5.17-.1.07.06.83-.55.86-.5A14.78,14.78,0,0,1,15.21,8l-.87.5a6.34,6.34,0,0,1,3.44,2.39c.63.83.78,2.34,1.87,1.4.78-.68.43-1.88.17-2.8-.63-2.27-1.9-3.32-3.38-4.95l-.8.46c.33-.18,1.61.49,2,.63a3.17,3.17,0,0,0,.87-.5l1.4-3.37-.87.5a11.63,11.63,0,0,1,2.09,3.83c.25.74.78,5.76.54,5.7,1.24.32,2.34-4.64,3-5.32l-.81.47c.66-.36.38,1.59.34,2,0-.16.76-.34.86-.5a12.55,12.55,0,0,1,3.51-3.6l-.65.37c.25-.11.76-.39,1.06-.26.61.25-.17.74-.49,1.13A17.09,17.09,0,0,0,26.19,9c-.38.77-1.25,2.68,0,2.32.54-.15.79-.69,1.16-1.06A6.05,6.05,0,0,1,30.47,8.6a8.89,8.89,0,0,1,1.13-.19c.62-.17.57,0-.16.48,0-.18-.52.64-.47.69.23.24,1.69-.34,2-.23.52.18.28-.23,0,.35-.64,1.32-2.59,2.67-3.62,3.73a27.89,27.89,0,0,0-2,2.2,19.87,19.87,0,0,0,2.29-1,6.72,6.72,0,0,1,4-.22l.87-.5c-.39.11-3.74.85-3.95,1.66-.08.31,1.87-.09,2.25-.11a4,4,0,0,1,4,1.9l.86-.5a30.93,30.93,0,0,0-5.89,1.2,3.66,3.66,0,0,0-1.31.65c-.37.51-.31.25.44.67,1.5.82,3,1.05,3.57,2.89l.86-.5c-2.19-.3-6.34-2.28-8.2-.27l.87-.5c-3.18-1.39-6.43-.5-9.29,1.19l.62-.35c-1,.57,1-.39,1.22-.46A10.26,10.26,0,0,1,22.27,21a8.16,8.16,0,0,1,4.85.58,3,3,0,0,0,.87-.5l.17-.19-.87.5c1.94-.7,5.22.69,7.17,1a6.75,6.75,0,0,0,.86-.5,4.15,4.15,0,0,0-2.63-2.54c-.2-.09-1.92-.57-1.64-.86l-.85.49c1.9-1,4.5-1.16,6.59-1.5.09,0,.86-.51.86-.5a4,4,0,0,0-4-1.9c-.58,0-1.16.13-1.74.21-.21,0-.86.18-.41-.16l-.85.49a16.51,16.51,0,0,1,3-1.09c.2-.06.69-.55.87-.5-2.12-.59-3.7.29-5.67.89-1.2.37-.41,0,.22-.68s5.34-5,5.15-5.36c-.38-.7-2.8,1.28-2-.23.35-.68,1.43-.68-.09-.62a6.39,6.39,0,0,0-1.66.4A9.7,9.7,0,0,0,29,8.94a13.22,13.22,0,0,0-3.13,2.59l.64-.38a13.31,13.31,0,0,1,.4-2.34,11.56,11.56,0,0,1,2-2.74c.51-.59,1.95-1.78.4-1.57a2.7,2.7,0,0,0-.76.33,12.21,12.21,0,0,0-4.37,4.11l.86-.5c.06-.6.31-2-.25-2.06a3.2,3.2,0,0,0-.91.52c-1.43,1.21-1.41,3.42-2.34,4.93l.86-.5c.26-.1.16-2.56.11-3.1a11.62,11.62,0,0,0-.87-3.49,11.14,11.14,0,0,0-1.77-3,7.33,7.33,0,0,0-.87.5L17.6,5.62l.87-.5c-.51-.2-1.58-.84-2.09-.56-.07,0-.79.48-.8.47,1.21,1.33,2.34,2.17,3,4,.35.9,1.1,2.78.37,3.67l.87-.5a21.93,21.93,0,0,0-2.79-3.29A5.4,5.4,0,0,0,15.21,8a8.4,8.4,0,0,0-.87.5,13.92,13.92,0,0,0,1.21,2.08l.86-.5c-1.44-1.21-3.59-.59-5.16.1-.29.13-.57.44-.87.5,3.93-.91,5.68,2.87,6.93,5.88l.87-.5c-2.39-3.75-5.32-1.12-7.09,1.64C10.88,18,9.41,20,9.52,20.32c.06.2.73-.24,1.29-.41a6.84,6.84,0,0,1,2.58-.29,7.94,7.94,0,0,1,5.19,2.7C18.62,22.37,19.41,21.78,19.44,21.82Z" style="fill:#00a651"/><path d="M35.4,35.88c0,8.64-.73,15.52-10.92,15.65s-10.92-7-10.92-15.65,4.89-15.64,10.92-15.64S35.4,27.24,35.4,35.88Z" style="stroke:#f7941d;stroke-miterlimit:10;fill:url(#radial-gradient-2)"/><polyline points="21.84 51.53 36.42 42.49 12.82 37.61 35.23 30.27 15.06 27.27 31.48 23.41 20.13 21.52" style="fill:none;stroke:#fff;stroke-linecap:round;stroke-linejoin:round"/><polyline points="29.3 50.77 13.1 43.75 36.39 36.09 13.46 31.72 33.5 26.29 17.14 24.09 28.2 21.04" style="fill:none;stroke:#fff;stroke-linecap:round;stroke-linejoin:round"/></svg>