<svg xmlns="http://www.w3.org/2000/svg" width="180" height="180" viewBox="0 0 180 180">
  <rect width="180" height="180" fill="none"/>

  <circle cx="30" cy="30" r="3" fill="#f6e7b5" />
  <circle cx="140" cy="60" r="3" fill="#f6e7b5" />
  <circle cx="80" cy="140" r="3" fill="#f6e7b5" />
  <circle cx="20" cy="100" r="2.5" fill="#f6e7b5" />
  <circle cx="150" cy="130" r="2.5" fill="#f6e7b5" />

  <g transform="translate(40 50)">
    <!-- crown -->
    <path d="M15 0 L10 8 L15 6 L20 8 Z" fill="#7ac25b" opacity="0.8"/>
    <!-- body -->
    <rect x="7" y="8" width="16" height="24" rx="8" fill="#ffd98a" stroke="#f7c148" stroke-width="1" />
    <!-- diagonal texture -->
    <path d="M9 12 L21 24 M9 18 L19 28 M11 10 L21 20" stroke="#f1b458" stroke-width="0.7" opacity="0.8"/>
  </g>

  <g transform="translate(115 115)">
    <path d="M15 0 L10 8 L15 6 L20 8 Z" fill="#7ac25b" opacity="0.75"/>
    <rect x="7" y="8" width="16" height="24" rx="8" fill="#ffe3a3" stroke="#f7c148" stroke-width="1" />
    <path d="M9 12 L21 24 M9 18 L19 28" stroke="#f1b458" stroke-width="0.7" opacity="0.8"/>
  </g>
</svg>
