<svg id="Layer_1" data-name="Layer 1" xmlns="http://www.w3.org/2000/svg" xmlns:xlink="http://www.w3.org/1999/xlink" viewBox="0 0 158.34 59.7"><defs><radialGradient id="radial-gradient" cx="12.4" cy="54.07" r="9.83" gradientTransform="translate(4.25 -50.81) scale(1.08 1.14)" gradientUnits="userSpaceOnUse"><stop offset="0" stop-color="#fff"/><stop offset="0" stop-color="#ffcb05"/><stop offset="0" stop-color="#00a651"/><stop offset="1" stop-color="#8bc751"/></radialGradient><radialGradient id="radial-gradient-2" cx="46.58" cy="71.18" r="11.59" gradientTransform="translate(-28.09 -43.03) scale(1 1.05)" gradientUnits="userSpaceOnUse"><stop offset="0" stop-color="#fff"/><stop offset="0" stop-color="#ffcb05"/><stop offset="1" stop-color="#f7941d"/></radialGradient></defs><title>white-mapi-pina-logo-Artboard 1 copy 2</title><path d="M45.64,15.13a4.49,4.49,0,0,1,2.22.62,6,6,0,0,1,1.66,1.47,8.45,8.45,0,0,1,1.18,2,21.08,21.08,0,0,1,.78,2.32,26.89,26.89,0,0,1,.75,6.28,44.18,44.18,0,0,1,2-6.32c.32-.78.68-1.54,1.08-2.3a13,13,0,0,1,1.3-2,6.53,6.53,0,0,1,1.48-1.41,2.84,2.84,0,0,1,1.71-.5,2.57,2.57,0,0,1,1.49.54,4.2,4.2,0,0,1,1.06,1.28A7.21,7.21,0,0,1,63,18.93a16.88,16.88,0,0,1,.36,2,30.14,30.14,0,0,1,0,5.49A31.94,31.94,0,0,1,65.28,21c.31-.66.66-1.32,1-2a10.49,10.49,0,0,1,1.26-1.74,5.83,5.83,0,0,1,1.49-1.22,3.09,3.09,0,0,1,1.7-.41,2.62,2.62,0,0,1,1.92.82,5.76,5.76,0,0,1,1.16,1.78,7.66,7.66,0,0,1,.53,2,13.91,13.91,0,0,1,.12,1.41c0,.14,0,.51-.12,1.12s-.17,1.35-.28,2.23-.22,1.85-.35,2.89-.25,2.06-.37,3-.22,1.89-.31,2.73-.17,1.48-.22,1.92a12.91,12.91,0,0,0,0,2.61,9.2,9.2,0,0,0,.31,1.65A3.65,3.65,0,0,0,73.7,41a1.16,1.16,0,0,1,.16.2.46.46,0,0,1-.08.5.21.21,0,0,1-.23.1,1,1,0,0,1-.3-.08l-.33-.15a2.06,2.06,0,0,1-.79-.7,5,5,0,0,1-.56-1.26,7.42,7.42,0,0,1-.26-2.17c0-.69,0-1.78,0-3.29a32.56,32.56,0,0,1,.45-4.94c.26-1.68.46-3.26.59-4.75a30.39,30.39,0,0,0,.12-3.93A7.58,7.58,0,0,0,72,17.86a1.51,1.51,0,0,0-1.31-1,2.49,2.49,0,0,0-1.83.81,9,9,0,0,0-1.62,2.19,22.26,22.26,0,0,0-1.37,3C65.41,23.89,65,25,64.73,26s-.57,2-.77,2.89-.32,1.55-.37,2c-.08.66-.15,1.44-.21,2.33s-.13,1.75-.18,2.55-.09,1.49-.12,2.08,0,.92,0,1a3.31,3.31,0,0,0-.1.32,1.66,1.66,0,0,1-.17.45.86.86,0,0,1-.33.35.55.55,0,0,1-.5,0,1.18,1.18,0,0,1-.54-.39,1.14,1.14,0,0,1-.2-.44,1.33,1.33,0,0,1,0-.49q.12-1.41.24-2.94.08-1.28.15-2.85c0-1.05.09-2.05.12-3q0-.94.06-2.31c0-.91.06-1.85.06-2.81s0-1.93-.08-2.88a18.13,18.13,0,0,0-.31-2.56,5.77,5.77,0,0,0-.67-1.84,1.35,1.35,0,0,0-1.1-.74c-.68,0-1.41.47-2.19,1.49a18,18,0,0,0-2.24,4.07A42.44,42.44,0,0,0,52.3,34.47c0,.69-.1,1.38-.15,2.05s-.09,1.28-.12,1.82S52,39.48,52,40.14a2.23,2.23,0,0,1,0,.74,1.75,1.75,0,0,1-.23.52.5.5,0,0,1-.51.18c-.66,0-1-.15-1.1-.31a1.3,1.3,0,0,1,0-.8c0-.19.08-.65.16-1.37s.15-1.53.23-2.43.15-1.85.2-2.82.08-1.79.08-2.48V29.31c0-.91,0-1.92-.12-3s-.21-2.23-.39-3.39a16.38,16.38,0,0,0-.81-3.16,7.41,7.41,0,0,0-1.37-2.38,2.87,2.87,0,0,0-2.13-1,4.85,4.85,0,0,0-1.87.29,7.87,7.87,0,0,0-1.76.89,10.17,10.17,0,0,0-1.59,1.3c-.49.49-1,1-1.37,1.49a23.26,23.26,0,0,0-2.78,4.09.45.45,0,0,1-.12.33.56.56,0,0,1-.23.14.36.36,0,0,1-.36-.06.38.38,0,0,1-.23-.31.79.79,0,0,1,0-.43,1.29,1.29,0,0,1,.19-.5,24.51,24.51,0,0,1,2.67-4.34,19.62,19.62,0,0,1,1.39-1.55,10.44,10.44,0,0,1,1.67-1.36,8.18,8.18,0,0,1,1.92-1,5.7,5.7,0,0,1,2.15-.31Z" style="fill:#fff"/><path d="M87.93,37a11.56,11.56,0,0,1-.69,1.2,12.3,12.3,0,0,1-1.15,1.57,9.16,9.16,0,0,1-1.47,1.39,2.72,2.72,0,0,1-1.63.6,2,2,0,0,1-1.41-.37,4.41,4.41,0,0,1-.82-.87,3,3,0,0,1-.47-1.24,11.5,11.5,0,0,1-.87,1.36,6.56,6.56,0,0,1-.9.93,1.43,1.43,0,0,1-1,.4,2.11,2.11,0,0,1-.7-.17,2,2,0,0,1-.82-.66,3.42,3.42,0,0,1-.61-1.41,6.47,6.47,0,0,1,0-2.35A7.62,7.62,0,0,1,76,34.81a6.86,6.86,0,0,1,1.14-1.76,4.11,4.11,0,0,1,1.27-1,2.68,2.68,0,0,1,1.12-.31,2.2,2.2,0,0,1,1.29.37,1.91,1.91,0,0,1,.61.74,1.8,1.8,0,0,1,.16.79c0,.25,0,.4,0,.45a1.51,1.51,0,0,1-.26.58.65.65,0,0,1-.25.21.29.29,0,0,1-.24,0l-.23-.11a1.91,1.91,0,0,0,0-.86,1.44,1.44,0,0,0-.31-.6A1,1,0,0,0,79.5,33a1.38,1.38,0,0,0-.84.29,3.08,3.08,0,0,0-.76.8,6.27,6.27,0,0,0-.63,1.18,8.25,8.25,0,0,0-.43,1.36,8.55,8.55,0,0,0-.2,1.41,5.39,5.39,0,0,0,.06,1.24,2.33,2.33,0,0,0,.33.87.71.71,0,0,0,.59.33,1.34,1.34,0,0,0,1-.66,7.44,7.44,0,0,0,.86-1.53,13.36,13.36,0,0,0,.61-1.74c.16-.58.26-1,.31-1.24s.12-.17.28-.19a1.39,1.39,0,0,1,.51.07,1.25,1.25,0,0,1,.49.27.44.44,0,0,1,.17.43,9.13,9.13,0,0,0-.41,2.21,3.43,3.43,0,0,0,.3,1.53,1.26,1.26,0,0,0,1.29.68,3.22,3.22,0,0,0,2.06-1.13A17.8,17.8,0,0,0,87.85,35c.18-.33.34-.3.47.08a2.72,2.72,0,0,1-.39,1.82Z" style="fill:#fff"/><path d="M86.79,36.54c.11-.14.21-.29.32-.46a2.8,2.8,0,0,0,.27-.62,3,3,0,0,0,.18-.6,2.21,2.21,0,0,1,.17-.57,1.36,1.36,0,0,1,.32-.46.89.89,0,0,1,.54-.22,1.2,1.2,0,0,1,1.24.67,6.66,6.66,0,0,1,.72,1.89c.26-.52.55-1,.85-1.51a9.42,9.42,0,0,1,.94-1.28,4.33,4.33,0,0,1,1-.89,2,2,0,0,1,1.16-.29,2.58,2.58,0,0,1,1.57.6,3,3,0,0,1,.78,1.14,4.17,4.17,0,0,1,.28,1.15c0,.36,0,.56,0,.58a6.48,6.48,0,0,1-.38,2,8.94,8.94,0,0,1-1,2.07,6.24,6.24,0,0,1-1.39,1.57,2.17,2.17,0,0,1-1.6.53,2.81,2.81,0,0,1-1.12-.32,1.59,1.59,0,0,1-.61-.56,28.08,28.08,0,0,1,.12,3.61c0,1.42-.07,2.84-.12,4.27,0,.75-.13,1.65-.23,2.71a18.49,18.49,0,0,1-.57,3.05,8,8,0,0,1-1.12,2.46,1.94,1.94,0,0,1-1.8.91,2.2,2.2,0,0,1-1.61-.71,3,3,0,0,1-.66-1.36A5,5,0,0,1,85,54.51a5.16,5.16,0,0,1,.08-.85,25,25,0,0,1,.54-3.38c.29-1.29.63-2.59,1-3.9s.77-2.53,1.18-3.67.75-2.05,1-2.71c.13-.3.26-.62.39-1s.29-.68.47-1.07c0-.3-.09-.56-.12-.76a2.05,2.05,0,0,0-.08-.44,6.22,6.22,0,0,0-.33-1.15q-.21-.59-.45-.54a.21.21,0,0,0-.2.1c0,.07-.07.19-.13.36l-.3.66a6.46,6.46,0,0,1-.7,1.07.47.47,0,0,1-.41.16.55.55,0,0,1-.3-.16A.44.44,0,0,1,86.6,37,.58.58,0,0,1,86.79,36.54Zm3.14,3.93-.55,1.61-.67,1.8c-.29.79-.58,1.7-.88,2.74S87.26,48.77,87,50a25.66,25.66,0,0,0-.49,3.52c0,.42,0,.82,0,1.2a5.43,5.43,0,0,0,.08,1,2.13,2.13,0,0,0,.25.75.53.53,0,0,0,.45.29,1.33,1.33,0,0,0,1.2-.83,9,9,0,0,0,.8-2.14,19.75,19.75,0,0,0,.47-2.63c.1-.91.18-1.7.24-2.36.1-1.47.14-2.92.11-4.37S90,41.66,89.93,40.47Zm.9-2.43A9.23,9.23,0,0,1,91,39.52c.2-.22.37-.33.5-.33s.12.07.18.21a5,5,0,0,0,.24.44,1.62,1.62,0,0,0,.39.45.93.93,0,0,0,.65.22,1.69,1.69,0,0,0,1.33-.5,4.42,4.42,0,0,0,.9-1.3,7.4,7.4,0,0,0,.51-1.55c.1-.52.18-.95.23-1.28a3.57,3.57,0,0,0,0-1.2,1.71,1.71,0,0,0-.31-.72,1.07,1.07,0,0,0-.49-.37,2.88,2.88,0,0,0-.51-.15,1.52,1.52,0,0,0-1.06.35,5.12,5.12,0,0,0-1,1,10.66,10.66,0,0,0-.9,1.49C91.32,36.89,91.06,37.46,90.83,38Z" style="fill:#fff"/><path d="M106.31,36.87l-.55,1a12.06,12.06,0,0,1-1.12,1.7,8.8,8.8,0,0,1-1.58,1.59,3.14,3.14,0,0,1-2,.7,2.62,2.62,0,0,1-1.81-.6,4.17,4.17,0,0,1-1-1.38,5.35,5.35,0,0,1-.43-1.53,5.81,5.81,0,0,1,0-1c0-.17.06-.41.1-.73S98,36,98,35.67s.1-.73.16-1.11a.74.74,0,0,1,.35-.42A.94.94,0,0,1,99,34a.8.8,0,0,1,.45.17.5.5,0,0,1,.2.43s0,.2-.1.52a10.79,10.79,0,0,0-.18,1.13,12.7,12.7,0,0,0-.08,1.43,5.34,5.34,0,0,0,.16,1.38,2.08,2.08,0,0,0,.59,1,1.5,1.5,0,0,0,1.17.37,2.63,2.63,0,0,0,1.53-.66,8.89,8.89,0,0,0,1.39-1.47,13.93,13.93,0,0,0,1.16-1.78c.34-.62.63-1.15.86-1.59.08-.19.17-.28.28-.27s.17.11.21.29a2.15,2.15,0,0,1,0,.75A4.67,4.67,0,0,1,106.31,36.87ZM99.06,30a.76.76,0,0,1,.74.6,4.09,4.09,0,0,1,.12.93,1,1,0,0,1-.47.7,1,1,0,0,1-.74.21.87.87,0,0,1-.69-.5,2.07,2.07,0,0,1-.14-.7,2.74,2.74,0,0,1,.32-.81.86.86,0,0,1,.9-.47Z" style="fill:#fff"/><path d="M124.61,15.21a11,11,0,0,1,5.94,2,7,7,0,0,1,1.92,2.11,3.44,3.44,0,0,1,.41,2.47A10.54,10.54,0,0,1,131,26.05a14.44,14.44,0,0,1-3.2,3.09,18.45,18.45,0,0,1-3.93,2.13,31.63,31.63,0,0,1-4.06,1.3,24.4,24.4,0,0,1-3.59.6,17,17,0,0,1-2.52,0c0,.79,0,1.62,0,2.47s0,1.63.06,2.33,0,1.3.06,1.8,0,.78,0,.87a1.51,1.51,0,0,0,.06.41.61.61,0,0,1,0,.35c0,.1-.11.15-.26.17a1.94,1.94,0,0,1-.68-.15,1.19,1.19,0,0,1-.73-.6A3.22,3.22,0,0,1,112,40a4.53,4.53,0,0,1,0-1.17c0-.66,0-1.34.08-2s0-1.21.08-1.91.06-1.4.11-2.09c-.62-.36-1-.66-1-.93a3.37,3.37,0,0,1-.1-.43.58.58,0,0,1,.1-.35c.06-.1.16-.09.29,0a1.39,1.39,0,0,0,.82.45c.05-.68.09-1.34.1-2s0-1.19,0-1.69a19.81,19.81,0,0,1,.12-2c.08-.77.17-1.58.29-2.42s.24-1.67.35-2.49.25-1.59.38-2.27l-.24,0a26.29,26.29,0,0,0-2.53,1,22.86,22.86,0,0,0-2.27,1.2,20.85,20.85,0,0,0-1.8,1.19,6.15,6.15,0,0,0-1.12,1,1.06,1.06,0,0,0-.14.35.74.74,0,0,0,0,.26.44.44,0,0,1,0,.25.34.34,0,0,1-.13.21.26.26,0,0,1-.34,0,1,1,0,0,1-.21-.42c-.05-.17-.1-.36-.14-.55a2.41,2.41,0,0,1-.06-.46,1.88,1.88,0,0,1,.75-1.48,12.84,12.84,0,0,1,1.49-1c.68-.42,1.3-.78,1.88-1.1s1.13-.6,1.68-.84,1.09-.48,1.63-.68,1.12-.42,1.74-.64a4.84,4.84,0,0,0,.1-.64A2.22,2.22,0,0,1,114,16a2,2,0,0,1,.16-.76.55.55,0,0,1,.27-.29.52.52,0,0,1,.35,0l.43.14a.91.91,0,0,0,.26.13.37.37,0,0,1,.21.16.67.67,0,0,1,.08.38,4.11,4.11,0,0,1-.12.78c.87-.28,1.64-.5,2.34-.68a17.23,17.23,0,0,1,2-.41q1-.15,2.07-.21c.73,0,1.57,0,2.51,0ZM113.72,31.79a16.63,16.63,0,0,0,2.62,0,19.93,19.93,0,0,0,3.41-.5,24.31,24.31,0,0,0,3.68-1.16,14.42,14.42,0,0,0,3.49-2,13.2,13.2,0,0,0,2.79-2.89,10.12,10.12,0,0,0,1.6-3.95,3.29,3.29,0,0,0-.41-2.56,4.47,4.47,0,0,0-1.8-1.47,8.06,8.06,0,0,0-2.37-.68c-.84-.11-1.53-.18-2.08-.21-.94,0-1.82,0-2.63,0a17.28,17.28,0,0,0-2.33.27,20.58,20.58,0,0,0-2.19.54c-.72.22-1.49.47-2.3.74a17.54,17.54,0,0,0-.33,2c-.09.78-.19,1.62-.29,2.52s-.21,1.82-.32,2.77-.21,1.88-.31,2.79c0,.55-.1,1.13-.14,1.75S113.74,31.13,113.72,31.79Z" style="fill:#fff"/><path d="M125.17,33.71a.87.87,0,0,0,.7-.2.92.92,0,0,0,.45-.66,3.7,3.7,0,0,0-.12-.88.72.72,0,0,0-.7-.57l0,0a.85.85,0,0,0-.86.45,2.43,2.43,0,0,0-.29.77,1.84,1.84,0,0,0,.13.66A.79.79,0,0,0,125.17,33.71Z" style="fill:#fff"/><path d="M133,31.06a.48.48,0,0,0,.23.27.42.42,0,0,0,.33,0c.12,0,.22-.12.3-.29a.58.58,0,0,1,.39-.14l.39,0a1.24,1.24,0,0,1,.9.29,2,2,0,0,0,1.1.37,2.75,2.75,0,0,0,1.35-.21,3.13,3.13,0,0,0,1-.74.48.48,0,0,0,.14-.39.53.53,0,0,0-.14-.35.51.51,0,0,0-.33-.15.43.43,0,0,0-.37.15,2.1,2.1,0,0,1-.71.51,3,3,0,0,1-.94.19,1.38,1.38,0,0,1-.86-.35,1.93,1.93,0,0,0-1.14-.4,6.19,6.19,0,0,0-.94.17,1,1,0,0,0-.7.62h0A.51.51,0,0,0,133,31.06Z" style="fill:#fff"/><path d="M146.22,35.16c0-.18-.11-.29-.21-.31s-.2,0-.28.2l-.84,1.59a11.27,11.27,0,0,1-1.14,1.76,7,7,0,0,1-1.43,1.39,2.41,2.41,0,0,1-1.68.47,1.39,1.39,0,0,1-1.14-.54,2.79,2.79,0,0,1-.45-1.19,6.35,6.35,0,0,1,0-1.51c.07-.54.14-1.06.22-1.55s.13-.93.17-1.29a1,1,0,0,0-.09-.7,1.52,1.52,0,0,0-1-.62c-.36,0-.62.2-.81.66-.1.22-.27.66-.51,1.33s-.49,1.34-.78,2-.56,1.33-.82,1.86-.47.8-.63.77-.31-.26-.29-.62,0-.79.09-1.28.09-1,.12-1.57a3.72,3.72,0,0,0-.2-1.49,1.56,1.56,0,0,0-.47-.75.93.93,0,0,0-.54-.2.84.84,0,0,0-.51.16,1.3,1.3,0,0,0-.4.46c-.15.28-1,1.77-1.28,2.25a13.54,13.54,0,0,1-1.18,1.73,8.31,8.31,0,0,1-1.41,1.43,2.65,2.65,0,0,1-1.55.64,1.54,1.54,0,0,1-1.19-.36,2.08,2.08,0,0,1-.6-1,5.55,5.55,0,0,1-.15-1.34,12.07,12.07,0,0,1,.07-1.39c.06-.43.12-.8.18-1.1a5,5,0,0,0,.1-.51.48.48,0,0,0-.2-.42.87.87,0,0,0-.45-.16,1,1,0,0,0-.5.1.79.79,0,0,0-.36.4c0,.38-.1.74-.16,1.09s-.1.6-.14.9l-.09.71a4.47,4.47,0,0,0,0,1,4.93,4.93,0,0,0,.44,1.49,3.83,3.83,0,0,0,1,1.34,2.69,2.69,0,0,0,1.82.59,3.23,3.23,0,0,0,2-.69,8.72,8.72,0,0,0,1.61-1.54,12.52,12.52,0,0,0,1.13-1.65c.3-.52.48-.85.56-1s.87-1.48.92-1.48.21.14.24.41a6,6,0,0,1,0,1.08c0,.41-.07.87-.12,1.36a7.44,7.44,0,0,0,0,1.41,3.28,3.28,0,0,0,.29,1.13.94.94,0,0,0,.83.52,1.47,1.47,0,0,0,1.29-.74,8.77,8.77,0,0,0,.94-1.74q.39-.94.63-1.74c.16-.52.27-.77.35-.74s.16.18.16.46v1q0,.57.06,1.26a3.38,3.38,0,0,0,.35,1.26,2.58,2.58,0,0,0,.86,1,3,3,0,0,0,1.59.43,3.32,3.32,0,0,0,2-.57,7.31,7.31,0,0,0,1.58-1.45A9.74,9.74,0,0,0,145.32,38c.28-.51.45-.84.53-1a4.73,4.73,0,0,0,.35-1.1A1.88,1.88,0,0,0,146.22,35.16Z" style="fill:#fff"/><path d="M157.57,37a11.56,11.56,0,0,1-.69,1.2,12.3,12.3,0,0,1-1.15,1.57,9.16,9.16,0,0,1-1.47,1.39,2.72,2.72,0,0,1-1.63.6,2,2,0,0,1-1.41-.37,4.41,4.41,0,0,1-.82-.87,3.14,3.14,0,0,1-.47-1.24,11.5,11.5,0,0,1-.87,1.36,6.56,6.56,0,0,1-.9.93,1.43,1.43,0,0,1-1,.4,2.11,2.11,0,0,1-.7-.17,2,2,0,0,1-.82-.66,3.42,3.42,0,0,1-.61-1.41,6.71,6.71,0,0,1,0-2.35,7.87,7.87,0,0,1,.66-2.52,6.86,6.86,0,0,1,1.14-1.76,4.11,4.11,0,0,1,1.27-1,2.68,2.68,0,0,1,1.12-.31,2.26,2.26,0,0,1,1.3.37,2,2,0,0,1,.6.74,1.8,1.8,0,0,1,.16.79c0,.25,0,.4,0,.45a1.51,1.51,0,0,1-.26.58.65.65,0,0,1-.25.21.26.26,0,0,1-.23,0l-.24-.11a1.91,1.91,0,0,0,0-.86,1.44,1.44,0,0,0-.31-.6,1,1,0,0,0-.75-.31,1.4,1.4,0,0,0-.84.29,3.08,3.08,0,0,0-.76.8,6.27,6.27,0,0,0-.63,1.18,8.25,8.25,0,0,0-.43,1.36,8.55,8.55,0,0,0-.2,1.41,5.39,5.39,0,0,0,.06,1.24,2.33,2.33,0,0,0,.33.87.71.71,0,0,0,.59.33,1.34,1.34,0,0,0,1-.66,7.44,7.44,0,0,0,.86-1.53,13.36,13.36,0,0,0,.61-1.74c.16-.58.26-1,.31-1.24s.12-.17.28-.19a1.39,1.39,0,0,1,.51.07,1.25,1.25,0,0,1,.49.27.44.44,0,0,1,.17.43,9.13,9.13,0,0,0-.41,2.21,3.43,3.43,0,0,0,.3,1.53,1.26,1.26,0,0,0,1.29.68,3.22,3.22,0,0,0,2.06-1.13A17.8,17.8,0,0,0,157.49,35c.18-.33.34-.3.47.08a2.72,2.72,0,0,1-.39,1.82Z" style="fill:#fff"/><path d="M13.54,19.63A7.12,7.12,0,0,0,5.14,18c1-1.19,4.11-8.57,7.24-3.44-.51-1.14-2.26-6.29-6.33-5.13,0,0,3.4-1.48,4.72-.09a17.27,17.27,0,0,1-1.1-1.82,6.21,6.21,0,0,1,4.11,3.7c1.05-.16-.19-5.17-2.87-6.6-.66-.52,1.74.39,1.74.39L13.93,2.1a10.13,10.13,0,0,1,2.26,8.39c.26.16,1.47-4.65,2.47-4.37a8,8,0,0,1,0,1.83s3-4.1,4.66-3.42c-1.4,2-3.43,3.1-3.32,5.68.52.41.68-2.26,5.81-2.78-.87.72-.94,1.07-.94,1.07l2.18-.24s-5.39,5.3-5.58,5.53,3.32-1.91,5.81-1c-1.1.28-3.24,1-2.87,1.15s4.45-1.23,5.77,1.44c-3.66.55-5.35.91-6,1.31s3.37.62,3.9,3c-3.17-.36-6.3-1.47-6.7-.67C17.71,17.19,13.54,19.63,13.54,19.63Z" style="fill:url(#radial-gradient)"/><path d="M14,19.38a7.11,7.11,0,0,0-6.63-2.22c-.38.08-1,.49-1.4.46-.7,0-.23.31-.16-.12a5.51,5.51,0,0,1,.86-1.39,9.39,9.39,0,0,1,2.85-3.28l-.81.46c1.5-.63,2.46.35,3.27,1.55,0,0,.87-.48.87-.5C11.62,11.59,10,8.45,6.48,9.21l-.87.5C7.06,9.1,9,8.56,10.34,9.62c.07.05.82-.55.86-.5A14,14,0,0,1,10.1,7.3l-.87.5a5.93,5.93,0,0,1,3.39,2.41c.56.8.63,1.64,1.53.85,2.12-1.87-1.85-5.58-2.92-6.79l-.87.5c.51-.12,1.38.35,1.85.52a2.93,2.93,0,0,0,.87-.5l1.28-2.94-.86.5a10.17,10.17,0,0,1,2.26,8.39h0c1.95-1,1.32-3.75,3.1-4.84L18,6.38c.47,0,.24,1.41.21,1.82,0-.16.75-.36.86-.5.55-.74,2.41-3.39,3.47-3,.65.25-.24.78-.57,1.17s-.93,1-1.33,1.51c-.2.27-1.79,2.91-1,3.12.2.06.78-.38.94-.5,1.27-1,1.81-1.79,3.61-2.15,2.56-.5-.13.56.29.9s1.8-.54,2.07-.23c.07.08-2.41,2.42-2.66,2.67s-3,2.58-2.85,2.86c0,0,1.85-.75,1.89-.76A6.62,6.62,0,0,1,26.85,13l.86-.5A13.34,13.34,0,0,0,24,14.07h0c.05.21,2-.15,2.31-.15a3.63,3.63,0,0,1,3.48,1.67l.87-.5c-1.43.22-5.6.2-6.64,1.65-.34.48-.35.15.33.58,1.32.85,2.72.81,3.31,2.55l.87-.5c-2.14-.29-5.72-2-7.57-.17l.86-.5a9.06,9.06,0,0,0-7.94.74l-.61.36a8.9,8.9,0,0,1,7.69-.6,3.31,3.31,0,0,0,.86-.5l.18-.18-.87.5c1.88-.56,4.64.6,6.53.85a6.91,6.91,0,0,0,.87-.5,3.76,3.76,0,0,0-2.41-2.21c-.19-.09-1.74-.51-1.5-.76l-.85.49c1.76-.91,4.12-1,6-1.3.1,0,.86-.52.87-.5a3.64,3.64,0,0,0-3.49-1.67c-.32,0-2.61.34-2.09,0l-.85.49A19,19,0,0,1,26.85,13c.2-.06.68-.55.86-.5-1.88-.48-3.31.19-5.07.73-1.18.37-.54.09.15-.6S27.53,8.26,27.36,8s-1.56.32-1.78.19c-.47-.26,0,.1.15-.57s.86-.46-.3-.37a7.38,7.38,0,0,0-1.65.41,10.21,10.21,0,0,0-1.27.56c-1.1.58-1.78,1.59-2.76,2.23L20.6,10c-.48.07.1-1.74.24-2a11.74,11.74,0,0,1,2-2.59c.67-.78,1.22-1.42-.15-1a2.85,2.85,0,0,0-.6.31A11.47,11.47,0,0,0,18.23,8.2l.86-.5c.13-1.31.21-2.25-1-1.36s-1.44,3-2.26,4.37l.85-.49c.45-.23.1-2.89,0-3.33a9.55,9.55,0,0,0-.82-2.66,9.24,9.24,0,0,0-1.51-2.38,6.09,6.09,0,0,0-.86.5L12.21,5.29l.87-.5c-.47-.17-1.34-.64-1.85-.52-.11,0-.84.53-.87.5,1.07,1.2,2.1,1.84,2.76,3.42.35.82,1,2.41.38,3.24l.87-.5a20.48,20.48,0,0,0-2.54-2.85A5,5,0,0,0,10.1,7.3c-.09,0-.85.53-.87.5a13,13,0,0,0,1.11,1.82l.86-.5c-1.34-1-3.28-.52-4.72.09-.28.12-.57.43-.87.5C9.14,9,10.76,12.09,12,14.84l.87-.5c-2.14-3.18-4.77-1.11-6.43,1.31C6,16.16,5,17.39,4.92,18l-.21.28a7.25,7.25,0,0,1,1.43-.54,6.55,6.55,0,0,1,2.25-.21,7.34,7.34,0,0,1,4.72,2.35C13.16,19.93,13.93,19.33,14,19.38Z" style="fill:#00a651"/><path d="M28.52,31.7c0,7.54-.67,13.55-10,13.66s-10-6.12-10-13.66S13,18,18.54,18,28.52,24.15,28.52,31.7Z" style="stroke:#f7941d;stroke-miterlimit:10;fill:url(#radial-gradient-2)"/><polyline points="16.13 45.36 29.45 37.47 7.88 33.21 28.37 26.79 9.93 24.17 24.94 20.8 14.56 19.15" style="fill:none;stroke:#fff;stroke-linecap:round;stroke-linejoin:round"/><polyline points="22.94 44.7 8.14 38.56 29.43 31.88 8.46 28.06 26.79 23.31 11.83 21.39 21.94 18.73" style="fill:none;stroke:#fff;stroke-linecap:round;stroke-linejoin:round"/></svg>